<svg width="1976" height="1390" viewBox="0 0 1976 1390" fill="none" xmlns="http://www.w3.org/2000/svg">
<path d="M433.664 1326.7C413.674 1326.7 405.855 1337.82 395.139 1351.21C391.132 1356.22 420.551 1388.76 428.761 1386.41C433.043 1385.19 449.424 1358.32 449.424 1353.49C449.424 1335.93 432.235 1323.55 414.752 1323.55" stroke="black" stroke-width="5" stroke-linecap="round"/>
<path d="M414.751 1323.55C414.751 1301.56 427.999 1291.76 438.392 1273.29C443.409 1264.37 448.909 1258.85 454.152 1250.7C461.516 1239.24 469.497 1223.92 478.493 1213.92C489.202 1202.03 498.187 1187.1 504.76 1172.07C513.39 1152.35 519.857 1132.25 529.626 1112.71C533.679 1104.6 540.833 1092.06 540.833 1083.29C540.833 1040.55 539.511 998.844 547.838 957.209C552.983 931.48 561.212 906.503 565.874 880.859C567.4 872.468 577.656 834.479 572.354 831.827" stroke="black" stroke-width="5" stroke-linecap="round"/>
<path d="M574.442 823.6C578.244 819.798 586.299 814.585 591.173 813.192C597.414 811.409 600.972 819.719 602.359 824.573C605.099 834.164 623.747 836.837 631.831 839.747C641.301 843.156 658.483 840.695 658.483 854.24C658.483 878.249 656.732 903.985 656.732 928.651C656.732 942.787 656.732 956.923 656.732 971.06C656.732 988.94 662.16 1009.07 665.097 1026.7C669.451 1052.82 681.244 1080.65 681.244 1107.14C681.244 1145.8 682.995 1185.46 682.995 1224.54" stroke="black" stroke-width="5" stroke-linecap="round"/>
<path d="M684.745 1214.04C684.745 1244.09 686.01 1272.13 668.988 1296.72C664.745 1302.84 658.483 1312.52 656.829 1319.96C655.695 1325.07 650.765 1328.87 649.631 1333.97C649.034 1336.66 642.453 1352.65 647.199 1354.01C651.843 1355.33 664.22 1351.21 667.237 1354.98C670.218 1358.71 680.892 1355.22 684.356 1358C687.98 1360.89 697.47 1359.64 702.254 1359.36C708.399 1359 707.506 1348.44 707.506 1344.48C707.506 1337.86 702.153 1335.81 700.6 1330.37C698.544 1323.17 694.379 1316.06 693.499 1308.58C693.158 1305.68 690.808 1302.16 690.095 1298.95C689.417 1295.9 690.903 1292.24 689.609 1289.32C687.102 1283.68 688.565 1277.35 686.107 1271.82C683.833 1266.7 681.244 1261.68 681.244 1256.06" stroke="black" stroke-width="5" stroke-linecap="round"/>
<path d="M658.483 844.61C666.024 844.61 674.245 847.595 681.341 849.96C689.328 852.623 699.884 854.331 707.117 858.617C716.778 864.342 727.587 868.606 737.271 873.986C763.329 888.462 790.615 899.47 820.436 905.112C895.778 919.366 974.359 931.219 1051.45 925.052C1074.18 923.234 1096.91 923.398 1119.83 923.398C1136.1 923.398 1148.69 914.647 1164.48 912.893C1180.07 911.16 1194.32 902.388 1210.87 902.388C1217.47 902.388 1227.79 901.258 1233.63 898.011C1239.14 894.95 1249.04 897.829 1252.02 891.883" stroke="black" stroke-width="5" stroke-linecap="round"/>
<path d="M1255.52 888.381C1255.52 895.746 1264.06 901.805 1268.55 907.057C1280.54 921.082 1293.71 934.404 1306.68 947.521C1346.44 987.729 1386.35 1022.97 1432.26 1055.59C1450.87 1068.81 1473.52 1081.2 1488.38 1098.87C1500.22 1112.95 1510.45 1127.86 1521.65 1142.25C1528.71 1151.34 1538.44 1161.84 1543.53 1172.02C1552.36 1189.66 1561.45 1209.45 1572.42 1225.9C1574.84 1229.53 1586.23 1240.58 1586.23 1244.68C1586.23 1246.25 1578.05 1245.55 1576.8 1245.55C1572.87 1245.55 1568.9 1248.77 1565.42 1250.42C1559.01 1253.45 1549.52 1257.5 1553.55 1266.56C1556.85 1273.99 1561.21 1274.99 1568.14 1276.97C1576.87 1279.46 1585.89 1287.57 1595.18 1287.57C1604.27 1287.57 1613.68 1285.82 1622.32 1285.82C1628.21 1285.82 1629.91 1275.14 1627.57 1270.94C1625 1266.3 1617.16 1263.25 1613.08 1259.17C1609.18 1255.27 1605.78 1251.67 1601.21 1249.05C1597.14 1246.73 1586.42 1245.53 1584.68 1242.05" stroke="black" stroke-width="5" stroke-linecap="round"/>
<path d="M1255.52 886.63C1288.66 886.63 1321.79 886.63 1354.93 886.63C1376.89 886.63 1398.63 883.857 1420.49 883.129C1434.26 882.67 1448.72 879.627 1462.12 879.627C1465.01 879.627 1475.08 877.876 1467.37 877.876C1465.05 877.876 1456.75 879.627 1458.62 879.627" stroke="black" stroke-width="5" stroke-linecap="round"/>
<path d="M1458.62 879.627C1458.62 930.126 1489.37 982.29 1528.65 1013.08C1541.78 1023.37 1553.57 1032.38 1568.14 1040.7C1586.28 1051.07 1605.48 1059.79 1623.2 1070.86C1653.21 1089.62 1683.31 1105.08 1711.61 1126.5C1733.62 1143.15 1753.64 1160.16 1771.14 1181.55C1779.24 1191.45 1790.35 1199.74 1798.28 1209.66C1804.16 1217.01 1815.17 1219.83 1821.04 1227.17C1825.03 1232.15 1840.73 1243.8 1847.3 1243.8" stroke="black" stroke-width="5" stroke-linecap="round"/>
<path d="M1847.3 1243.8C1852.33 1244.36 1879.39 1270.47 1871.82 1274.93C1866.34 1278.15 1861.88 1280.12 1856.93 1284.07C1852.87 1287.32 1852.65 1296.87 1850.42 1301.58C1848.97 1304.63 1843.79 1317.63 1849.93 1318.99C1857.08 1320.58 1864.44 1326.77 1871.43 1329.59C1883.16 1334.34 1894.43 1340.84 1906.83 1343.6C1914.3 1345.26 1921.72 1350.6 1929.59 1350.6C1942.4 1350.6 1951.88 1344.28 1960.72 1334.46C1970.72 1323.35 1962.45 1312.27 1952.35 1307.22C1939.55 1300.82 1927.13 1291.39 1913.45 1287.18C1899.92 1283.02 1888.06 1277.82 1875.32 1273.57" stroke="black" stroke-width="5" stroke-linecap="round"/>
<path d="M1472.52 873.154C1508.2 873.154 1592.3 867.823 1592.3 820.311C1592.3 776.654 1549.22 727.527 1520.27 698.575C1495.18 673.487 1469.61 650.789 1443.55 627.335C1409.63 596.806 1369.4 576.279 1336.89 543.764C1320.35 527.232 1299.3 519.785 1278.76 509.514C1266.62 503.444 1237.45 493.888 1229.44 483.875C1224.46 477.654 1185.46 468.514 1176.6 468.022C1153.35 466.73 1132.24 444.616 1109.66 443.362C1102.77 442.979 1087.79 438.338 1081.48 435.533C1071.82 431.243 1061.59 431.892 1051.73 429.074C1044.7 427.065 1036.34 422.224 1028.63 422.224C1019.74 422.224 1007.42 424.467 998.885 422.028C985.377 418.169 965.006 414.301 953.87 405.393C950.309 402.544 929.632 401.087 924.708 401.087C918.386 401.087 907.531 396.902 901.81 394.041" stroke="black" stroke-width="5" stroke-linecap="round"/>
<path d="M905.333 394.041C879.176 394.041 858.16 383.472 831.352 383.472C801.995 383.472 772.637 383.472 743.28 383.472C692.121 383.472 641.785 379.949 590.034 379.949C539.981 379.949 492.125 376.427 442.072 376.427C416.724 376.427 392.146 390.518 368.092 390.518C348.776 390.518 328.96 410.538 309.964 411.655C287.976 412.949 272.691 428.791 257.903 440.621C239.401 455.424 225.415 454.815 225.415 482.113C225.415 547.638 276.975 589.925 315.053 638.882C335.468 665.13 361.28 699.71 389.229 718.343C411.516 733.201 429.367 756.54 455.968 764.14C476.095 769.891 493.774 790.504 516.053 795.455C535.224 799.715 561.016 809.186 577.704 820.311" stroke="black" stroke-width="5" stroke-linecap="round"/>
<path d="M285.304 468.022C266.976 468.022 245.03 505.878 230.699 517.342C222.823 523.643 216.662 531.048 207.8 535.74C199.014 540.391 185.591 546.383 178.834 551.788C173.694 555.9 149.909 557.803 142.627 559.421C129.777 562.277 118.064 563.14 103.875 563.14C83.0885 563.14 59.3651 555.147 49.27 534.957" stroke="black" stroke-width="5" stroke-linecap="round"/>
<path d="M49.2697 534.957C36.2911 523.42 25.2479 505.243 21.2823 487.398C17.6788 471.182 20.1992 448.81 12.2794 434.554C5.05119 421.544 6.99502 396.799 6.99502 381.711C6.99502 366.101 3.47212 346.411 3.47212 328.868C3.47212 310.773 2.40984 292.321 3.47212 274.263C4.35866 259.192 14.0408 244.153 14.0408 228.465C14.0408 223.388 18.4762 211.881 21.8695 208.111C28.6653 200.56 39.9071 207.025 46.5297 201.065C58.3238 190.45 75.0665 185.794 87.2387 174.839C103.16 160.51 122.974 172.252 139.103 163.292C150.359 157.038 182.455 158.007 195.47 158.007C206.162 158.007 215.004 156.369 223.653 163.096C231.158 168.933 238.95 173.198 248.117 175.817C254.932 177.765 262.832 184.048 269.646 185.995C278.611 188.556 277.77 195.664 283.542 200.282C296.475 210.628 290.685 239.594 295.089 253.908C300.883 272.739 308.881 300.563 309.964 320.06C311.081 340.173 320.532 360.003 320.532 379.949C320.532 394.445 312.687 409.731 306.441 422.224" stroke="black" stroke-width="5" stroke-linecap="round"/>
<path d="M116.205 182.667C116.205 166.878 110.447 130.908 125.012 119.255C139.61 107.577 151.744 93.2013 164.743 79.7208C184.111 59.635 205.668 33.8119 228.938 18.853C251.457 4.37617 267.915 3 294.111 3C317.676 3 309.964 43.3514 309.964 59.3663C309.964 69.2956 312.489 83.1146 309.768 92.638C306.743 103.226 288.465 87.9446 285.304 87.5494C275.87 86.3701 270.322 80.5036 258.882 80.5036C246.915 80.5036 235.883 74.4587 223.653 77.1765C208.605 80.5206 191.749 106.733 183.14 117.494C177.534 124.502 173.581 131.955 169.831 140.393C167.975 144.569 169.048 174.848 169.048 161.53" stroke="black" stroke-width="5" stroke-linecap="round"/>
<path d="M211.323 186.19C229.463 186.19 253.384 167.077 269.255 158.007C282.654 150.351 301.248 139.352 312.704 129.041C323.708 119.138 412.445 91.3017 418.978 114.167C422.186 125.395 430.507 160.449 412.128 161.53C397.845 162.37 362.079 154.514 352.238 166.815C348.247 171.803 333.693 176.531 327.578 179.928C317.873 185.32 309.067 190.856 299.395 195.976C291.563 200.123 289.221 207.715 284.521 213.591C281.647 217.183 274.735 233.385 274.735 221.419" stroke="black" stroke-width="5" stroke-linecap="round"/>
<path d="M179.617 253.125C179.617 236.053 179.632 287.541 183.335 304.207C185.754 315.089 199.177 341.198 211.323 341.198C234.198 341.198 237.093 331.855 251.836 320.06C258.653 314.606 284.023 284.831 264.166 284.831" stroke="black" stroke-width="5" stroke-linecap="round"/>
<path d="M151.434 323.583C134.078 323.583 103.168 317.44 90.7618 329.846C87.8215 332.786 82.2966 352.118 86.2603 355.289C94.6289 361.984 101.639 362.335 112.682 362.335C130.464 362.335 148.213 385.736 164.743 365.075C179.72 346.353 160.297 327.106 140.865 327.106" stroke="black" stroke-width="5" stroke-linecap="round"/>
<path d="M21.0868 418.701C28.4654 418.701 35.6335 412.348 35.1784 404.61C34.9819 401.27 17.9217 397.564 14.041 397.564" stroke="black" stroke-width="5" stroke-linecap="round"/>
<path d="M28.1328 464.499C38.5192 464.499 88.9213 452.206 80.9762 436.316" stroke="black" stroke-width="5" stroke-linecap="round"/>
<path d="M38.7011 510.296C38.7011 533.243 24.6096 551.636 24.6096 573.708C24.6096 597.27 16.11 622.975 17.5638 647.689C17.9606 654.435 32.386 631.073 34.3954 626.552C38.6373 617.007 42.2878 607.913 46.5298 598.369C55.3147 578.603 59.8385 549.182 59.8385 527.911" stroke="black" stroke-width="5" stroke-linecap="round"/>
<path d="M1380.92 570.186C1381.72 562.969 1390.13 548.634 1393.45 542.002C1401.05 526.809 1408.44 511.796 1415.37 496.205C1419.63 486.628 1412.63 478.631 1412.63 469.783C1412.63 459.802 1412.63 449.82 1412.63 439.839C1412.63 420.342 1415.56 398.541 1401.28 384.255C1392.04 375.019 1395.01 381.951 1395.01 392.279C1395.01 398.072 1399.28 418.594 1403.82 422.224C1425.65 439.685 1454.9 488.143 1454.9 515.581C1454.9 553.763 1451.38 668.257 1451.38 630.075" stroke="black" stroke-width="5" stroke-linecap="round"/>
</svg>
